<svg width="17" height="16" viewBox="0 0 17 16" fill="none" xmlns="http://www.w3.org/2000/svg">
<path fill-rule="evenodd" clip-rule="evenodd" d="M8.5 5.5C7.11929 5.5 6 6.61929 6 8C6 9.38071 7.11929 10.5 8.5 10.5C9.88071 10.5 11 9.38071 11 8C11 6.61929 9.88071 5.5 8.5 5.5ZM5 8C5 6.067 6.567 4.5 8.5 4.5C10.433 4.5 12 6.067 12 8C12 9.933 10.433 11.5 8.5 11.5C6.567 11.5 5 9.933 5 8Z" fill="#007DB6"/>
<path fill-rule="evenodd" clip-rule="evenodd" d="M6.35892 1.33042C6.49624 1.28609 6.64603 1.30326 6.76977 1.3775L8.23132 2.25443C8.41047 2.24643 8.58989 2.24643 8.76904 2.25445L10.2245 1.38345C10.3472 1.31001 10.4955 1.29264 10.6319 1.33572C11.587 1.63749 12.4652 2.14323 13.2056 2.81794C13.3117 2.91466 13.3711 3.05234 13.3687 3.19591L13.3401 4.89481C13.4388 5.04637 13.5294 5.20308 13.6114 5.36426L15.093 6.188C15.2177 6.25736 15.3069 6.37673 15.338 6.51604C15.556 7.49234 15.5583 8.50445 15.3447 9.48173C15.314 9.62223 15.2243 9.74271 15.0985 9.81239L13.6112 10.6361C13.5292 10.7972 13.4387 10.9537 13.3401 11.1052L13.3687 12.8041C13.3711 12.9477 13.3117 13.0853 13.2055 13.1821C12.4667 13.8553 11.5923 14.3625 10.6411 14.6696C10.5038 14.7139 10.354 14.6967 10.2303 14.6225L8.76872 13.7456C8.58957 13.7536 8.41015 13.7536 8.231 13.7455L6.77552 14.6165C6.6528 14.69 6.50451 14.7074 6.36814 14.6643C5.41299 14.3625 4.53484 13.8568 3.79448 13.1821C3.68834 13.0853 3.62891 12.9476 3.63134 12.8041L3.65997 11.109C3.56186 10.9559 3.47139 10.798 3.3889 10.6359L1.90705 9.81199C1.7823 9.74263 1.69314 9.62326 1.66203 9.48395C1.44405 8.50765 1.44175 7.49554 1.65529 6.51826C1.68599 6.37776 1.77571 6.25728 1.90152 6.1876L3.38884 5.36385C3.47083 5.20281 3.56133 5.04624 3.65994 4.89481L3.63134 3.19591C3.62892 3.05233 3.68835 2.91464 3.79449 2.81792C4.5333 2.14469 5.40771 1.63748 6.35892 1.33042ZM4.63509 3.41041L4.66245 5.03533C4.66422 5.1406 4.63272 5.24374 4.57243 5.33006C4.43832 5.52206 4.3209 5.72521 4.22148 5.93726C4.17678 6.03259 4.10312 6.11138 4.01102 6.16239L2.58886 6.95005C2.46446 7.64456 2.46619 8.35583 2.59396 9.04973L4.01173 9.838C4.10314 9.88882 4.17631 9.96703 4.22095 10.0616C4.32256 10.2769 4.44107 10.4839 4.57537 10.6804C4.63377 10.7659 4.6642 10.8674 4.66245 10.9709L4.63511 12.5895C5.17554 13.0461 5.79356 13.4019 6.45972 13.6401L7.84952 12.8085C7.93754 12.7558 8.03963 12.7315 8.14194 12.7388C8.38035 12.7558 8.61968 12.7558 8.85809 12.7388C8.96061 12.7314 9.06289 12.7559 9.15102 12.8088L10.5453 13.6453C11.2093 13.4033 11.8253 13.0459 12.3649 12.5896L12.3376 10.9647C12.3358 10.8594 12.3673 10.7562 12.4276 10.6699C12.5617 10.4779 12.6791 10.2748 12.7786 10.0627C12.8233 9.9674 12.8969 9.88861 12.989 9.8376L14.4112 9.04994C14.5356 8.35543 14.5339 7.64416 14.4061 6.95026L12.9883 6.16199C12.8965 6.11097 12.8231 6.03234 12.7786 5.93726C12.6791 5.72521 12.5617 5.52206 12.4276 5.33006C12.3673 5.24374 12.3358 5.1406 12.3376 5.03533L12.3649 3.41048C11.8245 2.95393 11.2065 2.59807 10.5403 2.35985L9.15052 3.19154C9.0625 3.24421 8.96041 3.26854 8.85809 3.26122C8.61968 3.24417 8.38035 3.24417 8.14194 3.26122C8.03943 3.26855 7.93715 3.24412 7.84902 3.19124L6.45474 2.35468C5.79076 2.59667 5.17473 2.95409 4.63509 3.41041Z" fill="#007DB6"/>
</svg>
