<svg width="666" height="496" viewBox="0 0 666 496" fill="none" xmlns="http://www.w3.org/2000/svg">
<g clip-path="url(#clip0_921_5644)">
<path d="M97.1429 492.279C90.0745 475.698 85.0902 457.652 87.4493 439.792C88.2579 433.736 90.018 427.846 92.6642 422.341C94.7959 417.853 97.5487 413.688 100.841 409.97C101.979 408.658 103.542 407.788 105.255 407.512C106.968 407.236 108.724 407.572 110.215 408.46C110.446 408.593 110.677 408.735 110.89 408.886C112.044 409.701 112.955 410.815 113.524 412.11C113.634 412.358 113.726 412.613 113.799 412.874C114.124 413.964 114.212 415.112 114.056 416.24C112.812 425.431 113.082 434.764 114.854 443.869C115.306 446.186 115.859 448.484 116.512 450.76C117.98 448.926 119.539 447.168 121.186 445.494C125.455 441.162 130.379 437.529 135.775 434.73H135.784C135.811 434.712 135.829 434.703 135.855 434.686C142.4 431.346 151.127 432.732 156.227 435.005C156.564 435.147 156.883 435.307 157.193 435.458C159.854 436.826 161.176 438.398 160.04 439.428C159.783 439.65 159.526 439.881 159.286 440.112C151.556 447.269 145.222 455.804 140.609 465.281V465.29C138.775 469.063 137.231 472.97 135.988 476.977C134.276 482.51 132.857 488.647 129.514 493.158C129.172 493.633 128.802 494.087 128.405 494.517L98.5353 494.277C98.4644 494.242 98.4023 494.215 98.3314 494.18L97.1429 494.224C97.1873 494.011 97.2405 493.798 97.2937 493.585V493.567C97.3203 493.451 97.3558 493.327 97.3824 493.22C97.409 493.132 97.4267 493.052 97.4445 492.981C97.3913 492.847 97.338 492.723 97.276 492.59C97.2317 492.483 97.1872 492.386 97.1429 492.279Z" fill="#E0F0E8"/>
<path d="M97.2941 493.567C97.3033 493.633 97.3293 493.696 97.3698 493.75C97.4103 493.803 97.4639 493.845 97.5254 493.872C97.5868 493.899 97.6541 493.909 97.7208 493.903C97.7874 493.896 97.8513 493.872 97.9061 493.833C99.1336 492.942 100.48 492.227 101.906 491.711C101.915 491.702 101.915 491.711 101.915 491.711C103.714 491.063 105.566 490.57 107.449 490.236C107.467 490.236 107.475 490.228 107.493 490.228C108.256 490.077 109.019 489.943 109.781 489.801C113.489 489.117 117.258 488.291 120.468 486.178C121.775 485.367 122.895 484.289 123.756 483.014C124.616 481.739 125.198 480.296 125.461 478.78C125.931 475.805 125.337 472.812 125.089 469.846C125.071 469.632 125.053 469.41 125.045 469.197C125.027 468.922 125.018 468.656 125.018 468.389C124.927 465.696 125.467 463.019 126.597 460.574C128.047 457.646 129.951 454.966 132.237 452.634C133.417 451.364 134.646 450.142 135.927 448.966H135.935C135.989 448.913 136.033 448.869 136.086 448.824C136.086 448.815 136.095 448.806 136.104 448.798C141.577 443.818 147.784 439.714 154.507 436.63C154.746 436.524 154.994 436.408 155.243 436.302C155.89 436.009 156.538 435.734 157.194 435.458C156.883 435.307 156.564 435.147 156.227 435.005C148.729 438.181 141.809 442.581 135.749 448.025C135.545 448.202 135.341 448.389 135.146 448.575C133.612 449.996 132.151 451.486 130.765 453.043C128.548 455.434 126.751 458.185 125.452 461.178C124.5 463.6 124.08 466.198 124.22 468.798C124.237 469.295 124.273 469.792 124.317 470.298C124.592 473.291 125.204 476.382 124.521 479.375C123.741 482.785 121.098 485.165 118.029 486.622C115.998 487.529 113.866 488.191 111.679 488.593C107.156 489.544 102.482 490.005 98.5269 492.439H98.518C98.456 492.483 98.3939 492.519 98.3407 492.554C98.3318 492.554 98.3318 492.554 98.3318 492.563C98.0461 492.733 97.7707 492.92 97.507 493.123C97.4893 493.132 97.4715 493.149 97.4538 493.158C97.4283 493.177 97.4045 493.198 97.3828 493.22C97.3418 493.267 97.3125 493.323 97.297 493.383C97.2816 493.443 97.2806 493.506 97.2941 493.567Z" fill="white"/>
<path d="M135.379 448.88C133.767 446.878 132.919 444.369 132.984 441.798C133.05 439.228 134.026 436.765 135.738 434.849C136.086 434.462 136.702 434.985 136.354 435.372C134.756 437.154 133.848 439.448 133.791 441.842C133.735 444.235 134.535 446.57 136.047 448.425C136.375 448.828 135.705 449.281 135.379 448.88Z" fill="white"/>
<path d="M124.761 468.362C129.974 468.969 135.224 467.586 139.465 464.488C139.885 464.181 140.339 464.85 139.919 465.156C135.501 468.371 130.034 469.8 124.61 469.156C124.093 469.094 124.246 468.3 124.761 468.362Z" fill="white"/>
<path d="M154.454 436.533C154.471 436.568 154.489 436.595 154.507 436.63C154.996 437.53 155.678 438.309 156.505 438.911C157.332 439.513 158.282 439.923 159.287 440.112C159.527 439.881 159.784 439.65 160.041 439.428C160.001 439.403 159.955 439.388 159.908 439.384C158.942 439.277 158.015 438.942 157.204 438.406C156.393 437.871 155.721 437.149 155.243 436.302C155.199 436.231 155.154 436.151 155.119 436.08C155.089 436.036 155.051 435.998 155.007 435.969C154.963 435.94 154.914 435.92 154.862 435.91C154.81 435.9 154.756 435.9 154.705 435.911C154.653 435.922 154.604 435.943 154.56 435.973C154.475 436.036 154.417 436.128 154.397 436.232C154.377 436.336 154.397 436.443 154.454 436.533Z" fill="white"/>
<path d="M600.867 5.14177C616.813 5.15977 632.101 11.5111 643.377 22.8024C654.653 34.0937 660.995 49.4028 661.013 65.3711V296.189C660.995 312.157 654.653 327.466 643.377 338.758C632.101 350.049 616.813 356.4 600.867 356.418H64.6315C48.6852 356.4 33.3972 350.049 22.1215 338.758C10.8458 327.466 4.50328 312.157 4.4853 296.189V65.3711C4.50328 49.4028 10.8458 34.0937 22.1215 22.8024C33.3972 11.5111 48.6852 5.15977 64.6315 5.14177H600.867Z" fill="white"/>
<path d="M64.6313 361.252H600.867C618.093 361.233 634.608 354.372 646.789 342.174C658.969 329.977 665.821 313.439 665.84 296.189V65.3711C665.821 48.1212 658.969 31.5833 646.789 19.3858C634.608 7.18826 618.093 0.327155 600.867 0.307739H64.6313C47.4051 0.327144 30.8901 7.18824 18.7094 19.3858C6.52866 31.5833 -0.322978 48.1212 -0.342367 65.3711V296.189C-0.32299 313.439 6.52866 329.977 18.7094 342.174C30.8901 354.372 47.4051 361.233 64.6313 361.252ZM600.867 9.97587C615.533 9.99247 629.594 15.8341 639.965 26.2191C650.335 36.6041 656.169 50.6845 656.186 65.3711V296.189C656.169 310.876 650.335 324.956 639.965 335.341C629.594 345.726 615.533 351.568 600.867 351.584H64.6313C49.9649 351.568 35.904 345.726 25.5333 335.341C15.1626 324.956 9.32903 310.876 9.31245 296.189V65.3711C9.32903 50.6845 15.1626 36.6041 25.5333 26.2191C35.904 15.8341 49.9649 9.99247 64.6313 9.97587H600.867Z" fill="#DAF3FF"/>
<path d="M331.309 52.9303H586.325C591.768 52.9396 596.985 55.1089 600.834 58.9628C604.682 62.8167 606.849 68.041 606.858 73.4912V188.671C606.86 189.893 606.747 191.112 606.52 192.313C606.439 192.861 606.311 193.393 606.182 193.924C605.014 198.307 602.435 202.182 598.846 204.95C595.256 207.717 590.855 209.222 586.325 209.232H331.309C330.891 209.232 330.473 209.216 330.07 209.184H329.781V209.168C329.7 209.17 329.619 209.165 329.539 209.152C329.459 209.152 329.362 209.136 329.282 209.136C329.254 209.138 329.226 209.132 329.201 209.119C329.024 209.103 328.847 209.087 328.686 209.071C328.397 209.023 328.107 208.991 327.833 208.942C327.797 208.929 327.759 208.924 327.721 208.926C327.671 208.901 327.616 208.89 327.56 208.894C327.554 208.888 327.546 208.883 327.538 208.88C327.529 208.878 327.52 208.877 327.512 208.878C327.335 208.846 327.158 208.813 326.981 208.765C326.883 208.751 326.786 208.73 326.691 208.701C326.337 208.62 325.983 208.539 325.645 208.427C325.484 208.378 325.339 208.346 325.178 208.298C324.969 208.233 324.744 208.153 324.535 208.072C324.425 208.042 324.318 208.004 324.213 207.959C324.201 207.959 324.188 207.956 324.177 207.951C324.166 207.945 324.156 207.937 324.149 207.927C323.683 207.763 323.227 207.574 322.781 207.363C322.395 207.186 322.025 206.993 321.654 206.799C321.51 206.735 321.381 206.654 321.236 206.574C321.2 206.558 321.168 206.536 321.139 206.509C320.769 206.284 320.399 206.058 320.045 205.848C320.029 205.832 320.029 205.816 320.013 205.816C320.011 205.816 320.009 205.816 320.007 205.815C320.005 205.814 320.003 205.813 320.002 205.812C320 205.81 319.999 205.808 319.998 205.806C319.997 205.804 319.997 205.802 319.997 205.8C319.618 205.562 319.253 205.304 318.903 205.027H318.887C318.79 204.946 318.71 204.882 318.629 204.817C318.517 204.737 318.404 204.64 318.307 204.559C318.114 204.398 317.921 204.237 317.744 204.076C317.635 203.993 317.533 203.902 317.439 203.802C317.165 203.56 316.907 203.303 316.65 203.045C316.513 202.913 316.384 202.773 316.264 202.626C316.064 202.433 315.875 202.229 315.701 202.013C315.54 201.804 315.363 201.594 315.202 201.385C315.011 201.165 314.834 200.934 314.671 200.692C314.381 200.305 314.124 199.919 313.866 199.5C313.657 199.161 313.448 198.807 313.255 198.452C313.158 198.275 313.062 198.082 312.965 197.888C312.949 197.888 312.949 197.872 312.949 197.856C312.772 197.518 312.611 197.179 312.466 196.825C312.402 196.68 312.338 196.551 312.289 196.406C312.161 196.132 312.064 195.842 311.951 195.552C311.774 195.02 311.597 194.472 311.452 193.924C311.324 193.393 311.195 192.861 311.115 192.313C310.888 191.113 310.774 189.893 310.777 188.671V73.4912C310.786 68.041 312.952 62.8167 316.801 58.9628C320.649 55.1089 325.867 52.9396 331.309 52.9303Z" fill="#007DB6"/>
<path opacity="0.3" d="M310.777 85.9631H606.858V87.5745H310.777V85.9631Z" fill="white"/>
<path opacity="0.3" d="M310.777 103.688H606.858V105.299H310.777V103.688Z" fill="white"/>
<path opacity="0.3" d="M310.777 121.413H606.858V123.024H310.777V121.413Z" fill="white"/>
<path opacity="0.3" d="M310.777 139.138H606.858V140.749H310.777V139.138Z" fill="white"/>
<path opacity="0.3" d="M310.777 156.863H606.858V158.474H310.777V156.863Z" fill="white"/>
<path opacity="0.3" d="M310.777 174.588H606.858V176.199H310.777V174.588Z" fill="white"/>
<path opacity="0.3" d="M311.115 192.313C311.195 192.861 311.324 193.392 311.452 193.924H606.633C606.73 193.392 606.794 192.853 606.826 192.313H311.115Z" fill="white"/>
<g opacity="0.1">
<path d="M310.777 163.727V188.671C310.774 189.893 310.888 191.112 311.115 192.313C311.195 192.861 311.324 193.392 311.452 193.924C311.597 194.472 311.774 195.02 311.951 195.552C312.064 195.842 312.161 196.132 312.289 196.406C312.338 196.551 312.402 196.68 312.466 196.825C312.611 197.179 312.772 197.518 312.949 197.856C312.949 197.872 312.949 197.888 312.965 197.888C313.062 198.082 313.158 198.275 313.255 198.452C313.448 198.807 313.657 199.161 313.866 199.5C314.124 199.918 314.381 200.305 314.671 200.692C314.834 200.933 315.011 201.165 315.202 201.385C315.363 201.594 315.54 201.804 315.701 202.013C315.876 202.229 316.064 202.433 316.264 202.626C316.384 202.773 316.513 202.913 316.65 203.045C316.907 203.302 317.165 203.56 317.439 203.802C317.533 203.902 317.635 203.993 317.744 204.076C317.921 204.237 318.114 204.398 318.307 204.559C318.404 204.64 318.517 204.736 318.629 204.817C318.71 204.882 318.79 204.946 318.887 205.027H318.903C319.253 205.304 319.619 205.562 319.997 205.8C319.997 205.802 319.997 205.804 319.998 205.806C319.999 205.808 320 205.81 320.002 205.812C320.003 205.813 320.005 205.814 320.007 205.815C320.009 205.816 320.011 205.816 320.013 205.816C320.029 205.816 320.029 205.832 320.045 205.848C320.271 206.009 320.512 206.154 320.753 206.3C320.882 206.38 321.011 206.444 321.14 206.509C321.168 206.536 321.2 206.558 321.236 206.573C321.381 206.654 321.51 206.735 321.654 206.799C322.025 206.992 322.395 207.186 322.781 207.363C323.227 207.574 323.683 207.763 324.149 207.927C324.156 207.937 324.166 207.945 324.177 207.95C324.188 207.956 324.201 207.959 324.213 207.959C324.318 208.004 324.425 208.042 324.535 208.072C324.744 208.152 324.969 208.233 325.178 208.298C325.339 208.346 325.484 208.378 325.645 208.426C325.983 208.539 326.337 208.62 326.691 208.7C326.786 208.73 326.883 208.751 326.981 208.765C327.158 208.813 327.335 208.845 327.512 208.878C327.52 208.876 327.529 208.877 327.538 208.88C327.546 208.883 327.554 208.888 327.56 208.894C327.616 208.89 327.671 208.901 327.721 208.926C327.759 208.923 327.798 208.929 327.833 208.942C328.107 208.99 328.397 209.023 328.686 209.071C328.847 209.087 329.024 209.103 329.201 209.119C329.226 209.132 329.254 209.138 329.282 209.135C329.459 209.152 329.62 209.168 329.781 209.184H329.813C329.99 209.2 330.167 209.2 330.344 209.216C330.666 209.232 330.987 209.232 331.309 209.232H586.325C590.855 209.222 595.256 207.717 598.846 204.95C602.435 202.182 605.014 198.307 606.182 193.924H606.633C606.73 193.391 606.794 192.853 606.826 192.313C606.842 192.007 606.858 191.684 606.858 191.378V163.276C603.481 163.376 600.131 163.923 596.897 164.904C588.144 167.578 579.631 172.106 570.491 172.106C569.767 172.106 569.011 172.074 568.271 172.01C558.648 171.204 551.166 165.226 544.938 158.474C544.44 157.943 543.941 157.411 543.474 156.863C542.299 155.558 541.173 154.22 540.079 152.899C536.583 148.478 532.665 144.409 528.38 140.749C527.688 140.185 526.996 139.654 526.288 139.138C522.134 136.035 517.241 134.074 512.096 133.45C511.436 133.385 510.776 133.337 510.117 133.321C503.229 133.112 496.761 135.593 490.871 139.138C490.018 139.654 489.166 140.185 488.345 140.749C485.529 142.661 482.816 144.721 480.219 146.921C476.208 150.449 472.019 153.767 467.668 156.863C467.346 157.089 467.024 157.314 466.702 157.507C466.203 157.846 465.688 158.168 465.173 158.474C460.765 161.312 455.808 163.184 450.627 163.969C450.45 164.001 450.257 164.034 450.064 164.05C441.68 165.033 433.876 162.551 426.747 158.474C425.862 157.959 424.961 157.427 424.092 156.863C418.524 153.157 413.305 148.95 408.5 144.294C407.244 143.118 405.973 141.926 404.654 140.749C404.058 140.218 403.463 139.67 402.851 139.138C393.293 130.727 382.271 123.024 369.253 123.024C368.706 123.024 368.142 123.041 367.579 123.073C358.214 123.524 349.991 128.068 343.088 133.837C341.083 135.503 339.165 137.272 337.344 139.138C337.263 139.219 337.199 139.283 337.118 139.364C336.668 139.815 336.217 140.282 335.799 140.749C330.65 146.147 325.903 151.916 320.303 156.863C319.691 157.427 319.064 157.959 318.42 158.474C316.489 160.08 314.446 161.544 312.305 162.857C311.807 163.163 311.292 163.453 310.777 163.727Z" fill="black"/>
</g>
<g opacity="0.1">
<path d="M310.777 139.38V188.671C310.774 189.893 310.888 191.112 311.115 192.313C311.195 192.861 311.324 193.392 311.452 193.924C311.597 194.472 311.774 195.02 311.951 195.552C312.064 195.842 312.161 196.132 312.289 196.406C312.338 196.551 312.402 196.68 312.466 196.825C312.611 197.179 312.772 197.518 312.949 197.856C312.949 197.872 312.949 197.888 312.965 197.888C313.062 198.081 313.158 198.275 313.255 198.452C313.448 198.807 313.657 199.161 313.866 199.5C314.124 199.918 314.381 200.305 314.671 200.692C314.834 200.933 315.011 201.165 315.202 201.385C315.363 201.594 315.54 201.804 315.701 202.013C315.876 202.229 316.064 202.433 316.264 202.626C316.384 202.773 316.513 202.913 316.65 203.045C316.907 203.302 317.165 203.56 317.439 203.802C317.533 203.902 317.635 203.993 317.744 204.076C317.921 204.237 318.114 204.398 318.307 204.559C318.404 204.64 318.517 204.736 318.629 204.817C318.71 204.881 318.79 204.946 318.887 205.027H318.903C319.253 205.304 319.619 205.562 319.997 205.8C319.997 205.802 319.997 205.804 319.998 205.806C319.999 205.808 320 205.81 320.002 205.811C320.003 205.813 320.005 205.814 320.007 205.815C320.009 205.816 320.011 205.816 320.013 205.816C320.029 205.816 320.029 205.832 320.045 205.848C320.271 206.009 320.512 206.154 320.753 206.299C320.882 206.38 321.011 206.444 321.14 206.509C321.168 206.536 321.2 206.558 321.236 206.573C321.381 206.654 321.51 206.735 321.654 206.799C322.025 206.992 322.395 207.186 322.781 207.363C323.227 207.574 323.683 207.763 324.149 207.927C324.156 207.937 324.166 207.945 324.177 207.95C324.188 207.956 324.201 207.959 324.213 207.959C324.318 208.004 324.425 208.042 324.535 208.072C324.744 208.152 324.969 208.233 325.178 208.297C325.339 208.346 325.484 208.378 325.645 208.426C325.983 208.539 326.337 208.62 326.691 208.7C326.786 208.73 326.883 208.751 326.981 208.765C327.158 208.813 327.335 208.845 327.512 208.878C327.52 208.876 327.529 208.877 327.538 208.88C327.546 208.883 327.554 208.888 327.56 208.894C327.616 208.89 327.671 208.901 327.721 208.926C327.759 208.923 327.798 208.929 327.833 208.942C328.107 208.99 328.397 209.023 328.686 209.071C328.847 209.087 329.024 209.103 329.201 209.119C329.226 209.132 329.254 209.138 329.282 209.135C329.362 209.135 329.459 209.152 329.539 209.152C329.619 209.165 329.7 209.17 329.781 209.168C329.849 209.182 329.92 209.187 329.99 209.184H330.07C330.151 209.2 330.247 209.2 330.344 209.216C330.666 209.232 330.987 209.232 331.309 209.232H586.325C590.855 209.222 595.256 207.717 598.846 204.95C602.435 202.182 605.014 198.307 606.182 193.924C606.311 193.392 606.439 192.861 606.52 192.313C606.747 191.112 606.86 189.893 606.858 188.671V159.973C606.295 159.49 605.748 158.99 605.2 158.474C604.637 157.943 604.09 157.411 603.543 156.863C598.75 151.867 594.385 146.477 590.493 140.749C590.364 140.572 590.235 140.411 590.123 140.234C589.865 139.863 589.608 139.509 589.334 139.138C585.432 133.418 581.067 128.029 576.284 123.024C575.737 122.477 575.19 121.945 574.627 121.413C568.641 115.773 561.818 111.568 553.772 110.569C542.686 109.183 532.371 114.323 523.247 121.413C522.571 121.945 521.912 122.477 521.252 123.024C518.13 125.57 515.169 128.342 512.369 131.097C511.629 131.839 510.873 132.58 510.117 133.321C508.169 135.271 506.174 137.221 504.163 139.138C503.584 139.686 503.02 140.218 502.441 140.749C494.395 148.21 485.69 154.768 475.343 156.863C474.635 157.008 473.911 157.137 473.187 157.234C469.277 157.755 465.309 157.63 461.44 156.863C460.796 156.75 460.169 156.605 459.525 156.444C449.838 154.043 440.859 148.001 432.733 140.749C432.154 140.218 431.558 139.686 430.979 139.138C426.828 135.287 422.885 131.162 419.2 127.101C417.977 125.748 416.722 124.378 415.467 123.024C414.952 122.493 414.453 121.961 413.955 121.413C408.569 115.536 402.679 110.144 396.351 105.299C395.594 104.735 394.838 104.204 394.082 103.688C385.569 97.8711 376.269 94.1328 366.05 94.7289C357.619 95.2123 349.911 98.6928 342.976 103.688C342.268 104.204 341.559 104.735 340.851 105.299C335.574 109.545 330.757 114.336 326.482 119.592C325.983 120.188 325.484 120.801 324.985 121.413C324.728 121.719 324.487 122.042 324.229 122.348L323.698 123.024C319.434 128.358 315.331 133.901 310.97 139.138L310.777 139.38Z" fill="black"/>
</g>
<g opacity="0.1">
<path d="M310.777 119.028V188.671C310.774 189.893 310.888 191.112 311.115 192.313C311.195 192.861 311.324 193.392 311.452 193.924C311.597 194.472 311.774 195.02 311.951 195.552C312.064 195.842 312.161 196.132 312.289 196.406C312.338 196.551 312.402 196.68 312.466 196.825C312.611 197.179 312.772 197.518 312.949 197.856C312.949 197.872 312.949 197.888 312.965 197.888C313.062 198.082 313.158 198.275 313.255 198.452C313.448 198.807 313.657 199.161 313.866 199.5C314.124 199.918 314.381 200.305 314.671 200.692C314.834 200.934 315.011 201.165 315.202 201.385C315.363 201.594 315.54 201.804 315.701 202.013C315.876 202.229 316.064 202.433 316.264 202.626C316.384 202.773 316.513 202.913 316.65 203.045C316.907 203.302 317.165 203.56 317.439 203.802C317.533 203.902 317.635 203.993 317.744 204.076C317.921 204.237 318.114 204.398 318.307 204.559C318.404 204.64 318.517 204.736 318.629 204.817C318.71 204.882 318.79 204.946 318.887 205.027H318.903C319.253 205.304 319.619 205.562 319.997 205.8C319.997 205.802 319.997 205.804 319.998 205.806C319.999 205.808 320 205.81 320.002 205.812C320.003 205.813 320.005 205.814 320.007 205.815C320.009 205.816 320.011 205.816 320.013 205.816C320.029 205.816 320.029 205.832 320.045 205.848C320.271 206.009 320.512 206.154 320.753 206.3C320.882 206.38 321.011 206.444 321.14 206.509C321.168 206.536 321.2 206.558 321.236 206.573C321.381 206.654 321.51 206.735 321.654 206.799C322.025 206.992 322.395 207.186 322.781 207.363C323.227 207.574 323.683 207.763 324.149 207.927C324.156 207.937 324.166 207.945 324.177 207.95C324.188 207.956 324.201 207.959 324.213 207.959C324.318 208.004 324.425 208.042 324.535 208.072C324.744 208.152 324.969 208.233 325.178 208.298C325.339 208.346 325.484 208.378 325.645 208.426C325.983 208.539 326.337 208.62 326.691 208.7C326.786 208.73 326.883 208.751 326.981 208.765C327.158 208.813 327.335 208.845 327.512 208.878C327.52 208.876 327.529 208.877 327.538 208.88C327.546 208.883 327.554 208.888 327.56 208.894C327.616 208.89 327.671 208.901 327.721 208.926C327.759 208.923 327.798 208.929 327.833 208.942C328.107 208.99 328.397 209.023 328.686 209.071C328.847 209.087 329.024 209.103 329.201 209.119C329.226 209.132 329.254 209.138 329.282 209.135C329.362 209.135 329.459 209.152 329.539 209.152C329.619 209.165 329.7 209.17 329.781 209.168C329.789 209.176 329.801 209.182 329.813 209.184H330.07C330.473 209.216 330.891 209.232 331.309 209.232H586.325C590.855 209.222 595.256 207.717 598.846 204.95C602.435 202.182 605.014 198.307 606.182 193.924C606.311 193.392 606.439 192.861 606.52 192.313C606.747 191.112 606.86 189.893 606.858 188.671V147.066C605.233 144.955 603.602 142.85 601.966 140.749C601.548 140.201 601.129 139.67 600.711 139.138C598.506 136.302 596.286 133.498 594.001 130.759C591.812 128.132 589.511 125.538 587.114 123.024C586.599 122.493 586.084 121.945 585.553 121.413C579.448 115.044 572.437 109.615 564.747 105.299C563.701 104.719 562.639 104.188 561.561 103.688C555.851 100.959 549.674 99.3452 543.361 98.9346C535.08 98.5204 526.824 100.153 519.321 103.688C518.194 104.172 517.084 104.719 515.99 105.299C508.121 109.36 500.735 115.048 493.816 121.413C493.221 121.929 492.657 122.477 492.078 123.024C486.591 128.181 481.393 133.708 476.437 139.138C476.067 139.541 475.697 139.96 475.327 140.363C475.214 140.492 475.086 140.62 474.973 140.749C470.146 146.067 464.996 151.449 459.525 156.444C459.38 156.589 459.22 156.718 459.059 156.863C458.463 157.411 457.868 157.943 457.256 158.474C455.1 160.392 452.88 162.229 450.627 163.969C445.288 168.18 439.471 171.744 433.296 174.588C431.993 175.184 430.673 175.716 429.338 176.199C421.981 179.013 414.041 179.954 406.231 178.939C402.643 178.441 399.127 177.522 395.755 176.199C394.468 175.716 393.213 175.168 391.974 174.588C383.815 170.721 376.446 164.871 369.462 158.474C368.883 157.943 368.303 157.411 367.724 156.863C363.749 153.125 359.888 149.241 356.074 145.487C354.465 143.908 352.823 142.312 351.134 140.749C350.554 140.218 349.959 139.686 349.364 139.138C347.336 137.317 345.244 135.529 343.088 133.837C337.817 129.517 332.021 125.884 325.838 123.024C325.307 122.783 324.76 122.557 324.229 122.348C323.408 122.009 322.588 121.703 321.767 121.413C318.223 120.141 314.528 119.34 310.777 119.028Z" fill="black"/>
</g>
<path d="M543.297 108.522C540.631 108.522 538.47 106.358 538.47 103.688C538.47 101.018 540.631 98.854 543.297 98.854C545.963 98.854 548.125 101.018 548.125 103.688C548.125 106.358 545.963 108.522 543.297 108.522Z" fill="white"/>
<path d="M469.277 161.697C466.61 161.697 464.449 159.533 464.449 156.863C464.449 154.193 466.61 152.029 469.277 152.029C471.943 152.029 474.104 154.193 474.104 156.863C474.104 159.533 471.943 161.697 469.277 161.697Z" fill="white"/>
<path d="M369.51 126.247C366.844 126.247 364.683 124.083 364.683 121.413C364.683 118.743 366.844 116.579 369.51 116.579C372.176 116.579 374.337 118.743 374.337 121.413C374.337 124.083 372.176 126.247 369.51 126.247Z" fill="white"/>
<path d="M149.927 162.658H263.756C264.296 162.657 264.83 162.763 265.329 162.97C265.828 163.176 266.282 163.479 266.664 163.861C267.046 164.243 267.349 164.696 267.556 165.196C267.763 165.695 267.869 166.23 267.869 166.771C267.869 167.312 267.763 167.847 267.556 168.346C267.349 168.846 267.046 169.299 266.664 169.681C266.282 170.063 265.828 170.366 265.329 170.573C264.83 170.779 264.296 170.885 263.756 170.884H149.927C148.838 170.884 147.793 170.451 147.023 169.679C146.253 168.908 145.82 167.862 145.82 166.771C145.82 165.68 146.253 164.634 147.023 163.863C147.793 163.091 148.838 162.658 149.927 162.658Z" fill="#E6E6E6"/>
<path d="M149.927 224.939H263.756C264.845 224.939 265.89 225.373 266.66 226.144C267.431 226.915 267.863 227.961 267.863 229.052C267.863 230.143 267.431 231.189 266.66 231.96C265.89 232.732 264.845 233.165 263.756 233.165H149.927C148.838 233.165 147.793 232.732 147.023 231.96C146.253 231.189 145.82 230.143 145.82 229.052C145.82 227.961 146.253 226.915 147.023 226.144C147.793 225.373 148.838 224.939 149.927 224.939Z" fill="#E6E6E6"/>
<path d="M149.927 287.22H263.756C264.845 287.22 265.89 287.654 266.66 288.425C267.431 289.196 267.863 290.242 267.863 291.333C267.863 292.424 267.431 293.47 266.66 294.241C265.89 295.013 264.845 295.446 263.756 295.446H149.927C148.838 295.446 147.793 295.013 147.023 294.241C146.253 293.47 145.82 292.424 145.82 291.333C145.82 290.242 146.253 289.196 147.023 288.425C147.793 287.654 148.838 287.22 149.927 287.22Z" fill="#E6E6E6"/>
<path d="M80.9549 177.35C75.2902 177.35 70.6979 172.751 70.6979 167.079C70.6979 161.406 75.2902 156.808 80.9549 156.808C86.6197 156.808 91.2119 161.406 91.2119 167.079C91.2119 172.751 86.6197 177.35 80.9549 177.35Z" fill="#F2F2F2"/>
<path d="M79.5567 172.424C79.3795 172.424 79.2048 172.383 79.0464 172.304C78.888 172.224 78.7502 172.109 78.644 171.967L75.8457 168.231C75.7556 168.111 75.69 167.974 75.6526 167.829C75.6153 167.684 75.607 167.532 75.6281 167.384C75.6492 167.235 75.6994 167.092 75.7757 166.963C75.8521 166.833 75.9531 166.72 76.0731 166.63C76.193 166.54 76.3296 166.475 76.4748 166.438C76.6201 166.4 76.7713 166.392 76.9197 166.414C77.0681 166.435 77.2109 166.485 77.3398 166.562C77.4688 166.639 77.5814 166.74 77.6712 166.86L79.5019 169.304L84.204 162.242C84.3718 161.989 84.6328 161.814 84.9295 161.755C85.2262 161.696 85.5344 161.757 85.7862 161.925C86.038 162.093 86.2128 162.354 86.2721 162.651C86.3315 162.948 86.2705 163.257 86.1026 163.509L80.5061 171.916C80.4049 172.068 80.2687 172.193 80.109 172.282C79.9493 172.37 79.7708 172.419 79.5884 172.424L79.5567 172.424Z" fill="white"/>
<path d="M80.9549 239.631C75.2902 239.631 70.6979 235.032 70.6979 229.36C70.6979 223.687 75.2902 219.089 80.9549 219.089C86.6197 219.089 91.2119 223.687 91.2119 229.36C91.2119 235.032 86.6197 239.631 80.9549 239.631Z" fill="#F2F2F2"/>
<path d="M79.5567 234.705C79.3795 234.705 79.2048 234.664 79.0464 234.585C78.888 234.505 78.7502 234.39 78.644 234.248L75.8457 230.512C75.7556 230.392 75.69 230.255 75.6526 230.11C75.6153 229.965 75.607 229.813 75.6281 229.665C75.6492 229.516 75.6994 229.373 75.7757 229.244C75.8521 229.114 75.9531 229.002 76.0731 228.911C76.193 228.821 76.3296 228.756 76.4748 228.719C76.6201 228.681 76.7713 228.673 76.9197 228.695C77.0681 228.716 77.2109 228.766 77.3398 228.843C77.4688 228.92 77.5814 229.021 77.6712 229.141L79.5019 231.585L84.204 224.523C84.2871 224.398 84.3939 224.291 84.5184 224.207C84.6429 224.124 84.7826 224.066 84.9295 224.036C85.0764 224.007 85.2277 224.007 85.3747 224.036C85.5217 224.065 85.6615 224.123 85.7862 224.206C85.9109 224.289 86.0179 224.396 86.1013 224.521C86.1847 224.645 86.2427 224.785 86.2721 224.932C86.3015 225.08 86.3016 225.231 86.2726 225.378C86.2435 225.525 86.1858 225.665 86.1026 225.79L80.5061 234.197C80.4049 234.349 80.2687 234.474 80.109 234.563C79.9493 234.651 79.7708 234.7 79.5884 234.705L79.5567 234.705Z" fill="white"/>
<path d="M80.9549 301.912C75.2902 301.912 70.6979 297.313 70.6979 291.641C70.6979 285.968 75.2902 281.37 80.9549 281.37C86.6197 281.37 91.2119 285.968 91.2119 291.641C91.2119 297.313 86.6197 301.912 80.9549 301.912Z" fill="#F2F2F2"/>
<path d="M149.927 100.377H263.756C264.845 100.377 265.89 100.81 266.66 101.582C267.431 102.353 267.863 103.399 267.863 104.49C267.863 105.581 267.431 106.627 266.66 107.398C265.89 108.17 264.845 108.603 263.756 108.603H149.927C148.838 108.603 147.793 108.17 147.023 107.398C146.253 106.627 145.82 105.581 145.82 104.49C145.82 103.399 146.253 102.353 147.023 101.582C147.793 100.81 148.838 100.377 149.927 100.377Z" fill="#E6E6E6"/>
<path d="M80.9549 115.069C75.2902 115.069 70.6979 110.47 70.6979 104.798C70.6979 99.1251 75.2902 94.5265 80.9549 94.5265C86.6197 94.5265 91.2119 99.1251 91.2119 104.798C91.2119 110.47 86.6197 115.069 80.9549 115.069Z" fill="#D53656"/>
<path d="M79.5567 110.143C79.3795 110.143 79.2048 110.102 79.0464 110.023C78.888 109.943 78.7502 109.828 78.644 109.686L75.8457 105.95C75.7556 105.83 75.69 105.693 75.6526 105.548C75.6153 105.403 75.607 105.251 75.6281 105.102C75.6492 104.954 75.6994 104.811 75.7757 104.682C75.8521 104.552 75.9531 104.439 76.0731 104.349C76.193 104.259 76.3296 104.194 76.4748 104.157C76.6201 104.119 76.7713 104.111 76.9197 104.133C77.0681 104.154 77.2109 104.204 77.3398 104.281C77.4688 104.357 77.5814 104.459 77.6712 104.579L79.5019 107.023L84.204 99.9606C84.2871 99.8358 84.3939 99.7285 84.5184 99.645C84.6429 99.5616 84.7826 99.5035 84.9295 99.474C85.0764 99.4446 85.2277 99.4444 85.3747 99.4736C85.5217 99.5027 85.6615 99.5605 85.7862 99.6437C85.9109 99.7269 86.0179 99.834 86.1013 99.9586C86.1847 100.083 86.2427 100.223 86.2721 100.37C86.3015 100.517 86.3016 100.669 86.2726 100.816C86.2435 100.963 86.1858 101.103 86.1026 101.228L80.5061 109.635C80.4049 109.787 80.2687 109.912 80.109 110.001C79.9493 110.089 79.7708 110.138 79.5884 110.143L79.5567 110.143Z" fill="white"/>
<path d="M114.987 115.069C109.322 115.069 104.73 110.47 104.73 104.798C104.73 99.1251 109.322 94.5265 114.987 94.5265C120.651 94.5265 125.244 99.1251 125.244 104.798C125.244 110.47 120.651 115.069 114.987 115.069Z" fill="#F2F2F2"/>
<path d="M114.987 177.35C109.322 177.35 104.73 172.751 104.73 167.079C104.73 161.406 109.322 156.808 114.987 156.808C120.651 156.808 125.244 161.406 125.244 167.079C125.244 172.751 120.651 177.35 114.987 177.35Z" fill="#F2F2F2"/>
<path d="M114.987 239.631C109.322 239.631 104.73 235.032 104.73 229.36C104.73 223.687 109.322 219.089 114.987 219.089C120.651 219.089 125.244 223.687 125.244 229.36C125.244 235.032 120.651 239.631 114.987 239.631Z" fill="#F2F2F2"/>
<path d="M114.987 301.912C109.322 301.912 104.73 297.313 104.73 291.641C104.73 285.968 109.322 281.37 114.987 281.37C120.651 281.37 125.244 285.968 125.244 291.641C125.244 297.313 120.651 301.912 114.987 301.912Z" fill="#F2F2F2"/>
<path d="M79.5558 296.986C79.3787 296.986 79.204 296.945 79.0456 296.866C78.8872 296.786 78.7494 296.671 78.6431 296.529L75.8449 292.793C75.755 292.673 75.6896 292.536 75.6524 292.391C75.6152 292.246 75.607 292.095 75.6282 291.946C75.6494 291.798 75.6996 291.655 75.7759 291.526C75.8523 291.396 75.9532 291.284 76.0731 291.194C76.193 291.104 76.3294 291.038 76.4745 291.001C76.6196 290.964 76.7707 290.955 76.919 290.977C77.0673 290.998 77.21 291.048 77.339 291.125C77.4679 291.201 77.5805 291.302 77.6704 291.422L79.5011 293.866L84.2031 286.804C84.371 286.552 84.632 286.377 84.9287 286.317C85.2254 286.258 85.5336 286.319 85.7854 286.487C86.0371 286.655 86.2119 286.916 86.2713 287.213C86.3306 287.511 86.2697 287.819 86.1018 288.071L80.5053 296.478C80.404 296.63 80.2679 296.755 80.1082 296.844C79.9485 296.932 79.77 296.981 79.5876 296.986L79.5558 296.986Z" fill="white"/>
<path d="M97.1432 492.279C97.1398 492.338 97.15 492.396 97.1731 492.45C97.1962 492.504 97.2315 492.552 97.2763 492.59C97.3464 492.643 97.4288 492.676 97.5157 492.688C97.6038 492.706 97.6956 492.689 97.7717 492.641C97.8478 492.593 97.9023 492.518 97.9237 492.43C99.1476 488.309 102.145 485.148 104.983 482.048C107.537 479.268 110.047 476.338 111.333 472.723C111.89 471.287 112.137 469.749 112.058 468.211C111.978 466.672 111.574 465.168 110.872 463.798C110.43 462.978 109.917 462.199 109.338 461.471C108.07 459.854 106.562 458.416 105.205 456.888C105.063 456.728 104.921 456.56 104.788 456.4C104.602 456.195 104.433 455.982 104.274 455.769C102.582 453.674 101.406 451.21 100.841 448.576C100.236 445.363 100.143 442.075 100.567 438.833C100.744 437.11 100.989 435.399 101.303 433.7C101.32 433.62 101.329 433.549 101.347 433.478C102.716 426.19 105.205 419.158 108.726 412.634C108.859 412.394 108.983 412.154 109.116 411.923C109.684 410.893 110.269 409.881 110.89 408.886C110.677 408.735 110.446 408.593 110.216 408.46C108.182 411.758 106.412 415.211 104.921 418.788C102.994 423.378 101.547 428.155 100.602 433.043C100.54 433.309 100.496 433.584 100.451 433.851C100.079 435.902 99.8039 437.98 99.6354 440.05C99.3022 443.296 99.5242 446.576 100.292 449.748C100.987 452.264 102.219 454.6 103.901 456.595C104.203 456.977 104.522 457.35 104.859 457.714C106.207 459.188 107.697 460.618 108.912 462.226C109.533 463.033 110.059 463.909 110.482 464.837C111.91 468.034 111.236 471.533 109.657 474.535C106.801 479.997 101.356 483.718 98.4558 489.073C97.9201 490.059 97.4863 491.098 97.161 492.172C97.1508 492.207 97.1448 492.243 97.1432 492.279Z" fill="white"/>
<path d="M100.818 433.944C98.3282 433.318 96.1415 431.826 94.6486 429.734C93.1558 427.642 92.4542 425.087 92.669 422.525C92.7142 422.007 93.5205 422.053 93.4752 422.572C93.2708 424.957 93.9247 427.337 95.3188 429.282C96.7129 431.227 98.7554 432.609 101.078 433.179C101.582 433.303 101.32 434.068 100.818 433.944Z" fill="white"/>
<path d="M104.053 455.901C108.581 453.243 111.941 448.973 113.465 443.943C113.615 443.445 114.38 443.705 114.23 444.203C112.634 449.434 109.128 453.87 104.411 456.626C103.961 456.889 103.606 456.162 104.053 455.901Z" fill="white"/>
<path d="M108.628 412.59C108.664 412.607 108.69 412.616 108.726 412.634C110.323 413.364 112.14 413.449 113.799 412.874C113.726 412.613 113.634 412.357 113.524 412.11C112.083 412.605 110.51 412.538 109.116 411.923C109.036 411.897 108.965 411.861 108.885 411.826C108.784 411.791 108.674 411.797 108.577 411.844C108.481 411.891 108.407 411.973 108.371 412.074C108.342 412.177 108.352 412.287 108.4 412.382C108.448 412.477 108.529 412.551 108.628 412.59Z" fill="white"/>
<path d="M152.837 276.502C152.061 275.567 151.5 274.473 151.192 273.297C150.885 272.121 150.838 270.892 151.056 269.696C151.274 268.501 151.751 267.367 152.454 266.376C153.157 265.385 154.068 264.56 155.124 263.96L149.768 234.903L163.888 240.889L166.809 267.564C167.699 269.407 167.883 271.512 167.326 273.481C166.769 275.45 165.51 277.146 163.787 278.248C162.065 279.35 159.999 279.781 157.981 279.459C155.962 279.137 154.132 278.085 152.837 276.502Z" fill="#FFB6B6"/>
<path d="M144.219 190.501L148.706 175.395L180.35 125.954C182.11 123.895 184.214 122.159 186.567 120.821C191.244 118.144 196.696 117.153 202.014 118.013C207.333 118.874 212.196 121.533 215.793 125.549C219.39 129.565 221.504 134.694 221.783 140.081C222.062 145.468 220.488 150.789 217.324 155.155C216.672 156.067 215.952 156.928 215.169 157.73L174.186 200.057L171.854 202.473L168.164 211.816L166.71 254.418L165.406 254.729L153.921 257.438L152.316 257.82L149.629 243.903L147.944 237.251C146.51 231.578 145.786 225.749 145.789 219.898C145.789 218.095 145.851 216.283 145.992 214.48L144.219 190.501Z" fill="#3F3D56"/>
<path d="M187.72 484.276H198.708L203.936 441.834L187.718 441.835L187.72 484.276Z" fill="#FFB6B6"/>
<path d="M188.013 480.68L199.737 475.911L200.083 475.769L206.557 480.68C210.11 480.68 213.526 482.053 216.092 484.514C218.658 486.974 220.177 490.332 220.33 493.887C220.348 494.082 220.348 494.286 220.348 494.49V494.943H184.917V480.68H188.013Z" fill="#2F2E41"/>
<path d="M208.646 462.327L218.117 467.907L244.117 433.983L230.14 425.747L208.646 462.327Z" fill="#FFB6B6"/>
<path d="M202.105 467.918L203.391 465.725L208.047 457.803L210.468 459.233L210.717 459.375L223.24 461.222L223.612 461.275L226.698 468.798C228.26 469.717 229.625 470.935 230.716 472.383C231.807 473.831 232.603 475.48 233.058 477.236C233.512 478.992 233.617 480.82 233.366 482.616C233.115 484.413 232.513 486.142 231.594 487.705L231.363 488.087L200.828 470.094L202.105 467.918Z" fill="#2F2E41"/>
<path d="M173.803 224.808C168.651 240.367 169.196 257.256 175.042 275.383L176.567 337.697L181.468 377.003C178.513 384.705 176.997 392.885 176.996 401.136C177.016 422.763 178.469 453.488 185.831 467.921H203.254L207.187 403.646L211.881 371.33L212.459 336.7L212.964 306.497L231.909 334.238L250.318 361.194L232.02 392.101L216.056 441.835L232.907 456.044L252.023 419.753L261.287 408.975L286.577 354.152L284.304 346.518C279.624 330.799 272.826 315.791 264.099 301.909L238.943 243.445L173.803 224.808Z" fill="#2F2E41"/>
<path d="M171.57 219.613L174.444 213.859L174.186 200.057L173.326 153.396C173.222 147.353 174.342 141.351 176.618 135.752C178.894 130.153 182.278 125.074 186.567 120.821C189.112 118.281 191.96 116.065 195.046 114.222L201.218 110.528L204.34 102.588L233.128 103.29L233.19 110.99L233.217 113.698L243.531 130.164L243.522 130.235L243.31 160.199L242.884 219.844L240.037 229.09L244.338 239.853L242.05 246.71L240.223 246.416L178.692 236.567C175.895 235.669 173.521 233.781 172.013 231.257C171.71 230.763 171.446 230.246 171.224 229.711C170.553 228.102 170.237 226.367 170.296 224.625C170.356 222.882 170.79 221.173 171.57 219.613Z" fill="#3F3D56"/>
<path d="M221.374 92.7121C206.927 92.7121 195.215 80.984 195.215 66.5167C195.215 52.0495 206.927 40.3214 221.374 40.3214C235.821 40.3214 247.533 52.0495 247.533 66.5167C247.533 80.984 235.821 92.7121 221.374 92.7121Z" fill="#FFB6B6"/>
<path d="M205.101 88.2226C202.338 86.276 199.54 82.5702 197.677 79.796C195.207 76.149 193.53 72.0231 192.754 67.6856C191.978 63.348 192.121 58.8957 193.174 54.6171C193.514 52.9052 194.315 51.3189 195.489 50.029C196.089 49.3993 196.873 48.976 197.728 48.8196C198.583 48.6632 199.466 48.7818 200.25 49.1584C199.855 48.0524 199.69 46.877 199.766 45.7048C199.842 44.5326 200.158 43.3885 200.693 42.343C201.779 40.2558 203.335 38.4507 205.239 37.0707C208.881 34.3417 213.193 32.651 217.717 32.1781C222.242 31.7052 226.809 32.4676 230.936 34.3845C232.559 35.1653 229.957 29.2729 231.659 29.8612C233.349 30.5435 235.238 30.5364 236.923 29.8415C238.542 29.053 243.807 33.944 243.214 32.2414C244.426 32.8132 245.475 33.6832 246.262 34.7702C247.049 35.8572 247.548 37.126 247.713 38.4582C247.879 39.7905 247.705 41.143 247.207 42.3898C246.71 43.6365 245.906 44.737 244.869 45.5887C243.504 46.711 241.809 47.3447 240.318 48.2931C237.703 50.0817 235.832 52.7671 235.059 55.8423C234.286 58.9175 234.665 62.1696 236.122 64.9847C234.581 63.9625 232.885 63.1964 231.1 62.7158C230.204 62.4837 229.266 62.4691 228.363 62.6733C227.461 62.8775 226.62 63.2945 225.911 63.8897C225.316 64.5527 224.863 65.3303 224.579 66.175C224.295 67.0197 224.187 67.9135 224.261 68.8016C224.295 70.5799 224.693 72.3369 224.716 74.1154C224.783 79.3339 227.436 89.2903 223.359 92.0071C220.141 94.1511 208.874 90.8805 205.101 88.2226Z" fill="#2F2E41"/>
<path d="M366.697 130.232C366.078 131.278 365.238 132.175 364.235 132.86C363.233 133.546 362.092 134.002 360.894 134.199C359.696 134.395 358.47 134.326 357.302 133.996C356.133 133.666 355.051 133.084 354.132 132.29L328.602 147.105L329.488 131.776L353.595 120.058C355.029 118.599 356.948 117.719 358.987 117.582C361.026 117.446 363.044 118.063 364.659 119.317C366.274 120.572 367.374 122.375 367.749 124.387C368.125 126.399 367.751 128.479 366.697 130.232Z" fill="#FFB6B6"/>
<path d="M201.83 125.643C202.82 122.543 204.44 119.682 206.588 117.239C208.736 114.797 211.365 112.825 214.31 111.449C217.255 110.073 220.453 109.322 223.702 109.243C226.951 109.163 230.182 109.758 233.19 110.99C233.474 111.105 233.758 111.229 234.042 111.354L290.678 137.171L312.725 134.551L341.265 124.569L341.992 125.697L348.405 135.617L349.3 137.002L318.685 155.128L315.439 155.803C312.613 156.389 309.929 157.527 307.543 159.153C305.157 160.78 303.114 162.861 301.533 165.279L289.667 169.187L243.309 160.199L217.324 155.155L215.852 154.871C211.399 153.155 207.569 150.129 204.867 146.191C202.165 142.253 200.716 137.588 200.713 132.81C200.711 130.378 201.088 127.96 201.83 125.643Z" fill="#3F3D56"/>
<path d="M70.0426 496H378.666C378.946 496 379.214 495.889 379.412 495.69C379.61 495.492 379.722 495.223 379.722 494.943C379.722 494.662 379.61 494.393 379.412 494.195C379.214 493.996 378.946 493.885 378.666 493.885H70.0426C69.7626 493.885 69.494 493.996 69.296 494.195C69.0979 494.393 68.9867 494.662 68.9867 494.943C68.9867 495.223 69.0979 495.492 69.296 495.69C69.494 495.889 69.7626 496 70.0426 496Z" fill="#CCCCCC"/>
<path d="M402.215 248.919H589.655C590.743 248.921 591.786 249.355 592.555 250.126C593.324 250.897 593.756 251.943 593.756 253.032C593.756 254.122 593.324 255.167 592.555 255.939C591.786 256.71 590.743 257.144 589.655 257.145H402.215C401.675 257.146 401.14 257.04 400.641 256.834C400.142 256.628 399.689 256.325 399.307 255.943C398.925 255.561 398.622 255.107 398.415 254.608C398.208 254.108 398.102 253.573 398.102 253.032C398.102 252.492 398.208 251.956 398.415 251.457C398.622 250.958 398.925 250.504 399.307 250.122C399.689 249.74 400.142 249.437 400.641 249.231C401.14 249.025 401.675 248.919 402.215 248.919Z" fill="#E6E6E6"/>
<path d="M333.243 263.611C327.578 263.611 322.986 259.013 322.986 253.34C322.986 247.667 327.578 243.069 333.243 243.069C338.908 243.069 343.5 247.667 343.5 253.34C343.5 259.013 338.908 263.611 333.243 263.611Z" fill="#D53656"/>
<path d="M331.843 258.686C331.666 258.686 331.492 258.644 331.333 258.565C331.175 258.486 331.037 258.37 330.931 258.229L328.132 254.492C328.043 254.372 327.977 254.236 327.94 254.09C327.903 253.945 327.895 253.794 327.916 253.645C327.937 253.497 327.987 253.354 328.063 253.225C328.14 253.096 328.241 252.983 328.361 252.893C328.481 252.803 328.617 252.737 328.762 252.7C328.907 252.663 329.058 252.655 329.207 252.676C329.355 252.697 329.498 252.747 329.627 252.824C329.755 252.9 329.868 253.001 329.958 253.121L331.789 255.566L336.491 248.503C336.574 248.378 336.681 248.271 336.805 248.187C336.93 248.104 337.069 248.046 337.216 248.016C337.363 247.987 337.514 247.987 337.661 248.016C337.808 248.045 337.948 248.103 338.073 248.186C338.198 248.269 338.305 248.376 338.388 248.501C338.471 248.626 338.529 248.765 338.559 248.913C338.588 249.06 338.588 249.211 338.559 249.358C338.53 249.506 338.472 249.646 338.389 249.77L332.793 258.177C332.692 258.329 332.555 258.454 332.396 258.543C332.236 258.631 332.058 258.68 331.875 258.685L331.843 258.686Z" fill="white"/>
<path d="M367.274 263.611C361.609 263.611 357.017 259.013 357.017 253.34C357.017 247.667 361.609 243.069 367.274 243.069C372.939 243.069 377.531 247.667 377.531 253.34C377.531 259.013 372.939 263.611 367.274 263.611Z" fill="#F2F2F2"/>
<path d="M403.102 298.653H590.541C591.63 298.655 592.673 299.089 593.442 299.86C594.211 300.631 594.643 301.676 594.643 302.766C594.643 303.856 594.211 304.901 593.442 305.672C592.673 306.443 591.63 306.877 590.541 306.879H403.102C402.012 306.879 400.968 306.446 400.198 305.674C399.427 304.903 398.995 303.857 398.995 302.766C398.995 301.675 399.427 300.629 400.198 299.858C400.968 299.087 402.012 298.653 403.102 298.653Z" fill="#E6E6E6"/>
<path d="M334.13 317.345C328.465 317.345 323.873 312.746 323.873 307.074C323.873 301.401 328.465 296.803 334.13 296.803C339.794 296.803 344.387 301.401 344.387 307.074C344.387 312.746 339.794 317.345 334.13 317.345Z" fill="#F2F2F2"/>
<path d="M332.731 308.42C332.553 308.42 332.379 308.378 332.22 308.299C332.062 308.22 331.924 308.104 331.818 307.962L329.02 304.226C328.838 303.984 328.76 303.679 328.803 303.379C328.846 303.079 329.006 302.808 329.248 302.627C329.49 302.445 329.794 302.367 330.094 302.41C330.393 302.453 330.664 302.613 330.845 302.855L332.676 305.299L337.378 298.237C337.461 298.112 337.568 298.005 337.692 297.921C337.817 297.838 337.957 297.78 338.104 297.75C338.25 297.721 338.402 297.721 338.549 297.75C338.696 297.779 338.836 297.837 338.96 297.92C339.085 298.003 339.192 298.11 339.275 298.235C339.359 298.359 339.417 298.499 339.446 298.646C339.475 298.794 339.476 298.945 339.447 299.092C339.417 299.239 339.36 299.379 339.277 299.504L333.68 307.911C333.579 308.063 333.443 308.188 333.283 308.277C333.123 308.365 332.945 308.414 332.762 308.419L332.731 308.42Z" fill="white"/>
<path d="M368.161 313.345C362.496 313.345 357.904 308.746 357.904 303.074C357.904 297.401 362.496 292.803 368.161 292.803C373.826 292.803 378.418 297.401 378.418 303.074C378.418 308.746 373.826 313.345 368.161 313.345Z" fill="#F2F2F2"/>
</g>
<defs>
<clipPath id="clip0_921_5644">
<rect width="666" height="496" fill="white" transform="matrix(-1 0 0 1 666 0)"/>
</clipPath>
</defs>
</svg>
