<svg xmlns="http://www.w3.org/2000/svg" width="20" height="20" viewBox="0 0 20 20" fill="none">
    <path d="M10 13.75V6.25" stroke="#007DB6" stroke-linecap="round" stroke-linejoin="round"/>
    <path d="M6.875 11.25C7.49307 11.25 8.09725 11.4333 8.61116 11.7767C9.12506 12.12 9.5256 12.6081 9.76212 13.1791C9.99865 13.7501 10.0605 14.3785 9.93995 14.9847C9.81938 15.5908 9.52175 16.1477 9.08471 16.5847C8.64767 17.0217 8.09085 17.3194 7.48466 17.44C6.87847 17.5605 6.25013 17.4986 5.67911 17.2621C5.1081 17.0256 4.62004 16.6251 4.27666 16.1112C3.93328 15.5973 3.75 14.9931 3.75 14.375V13.8516" stroke="#007DB6" stroke-linecap="round" stroke-linejoin="round"/>
    <path d="M13.125 11.25C12.5069 11.25 11.9027 11.4333 11.3888 11.7767C10.8749 12.12 10.4744 12.6081 10.2379 13.1791C10.0014 13.7501 9.93947 14.3785 10.06 14.9847C10.1806 15.5908 10.4783 16.1477 10.9153 16.5847C11.3523 17.0217 11.9092 17.3194 12.5153 17.44C13.1215 17.5605 13.7499 17.4986 14.3209 17.2621C14.8919 17.0256 15.38 16.6251 15.7233 16.1112C16.0667 15.5973 16.25 14.9931 16.25 14.375V13.8516" stroke="#007DB6" stroke-linecap="round" stroke-linejoin="round"/>
    <path d="M5.62531 14.0625H5.00031C4.11392 14.0649 3.25534 13.7532 2.5769 13.1828C1.89846 12.6123 1.44402 11.82 1.2942 10.9463C1.14438 10.0727 1.30887 9.17424 1.75848 8.41035C2.2081 7.64646 2.91377 7.06652 3.75031 6.77344V5.625C3.75031 4.7962 4.07955 4.00134 4.6656 3.41529C5.25165 2.82924 6.0465 2.5 6.87531 2.5C7.70411 2.5 8.49896 2.82924 9.08502 3.41529C9.67107 4.00134 10.0003 4.7962 10.0003 5.625V14.375" stroke="#007DB6" stroke-linecap="round" stroke-linejoin="round"/>
    <path d="M14.375 14.0625H15C15.8864 14.0649 16.745 13.7532 17.4234 13.1828C18.1018 12.6123 18.5563 11.82 18.7061 10.9463C18.8559 10.0727 18.6914 9.17424 18.2418 8.41035C17.7922 7.64646 17.0865 7.06652 16.25 6.77344V5.625C16.25 4.7962 15.9208 4.00134 15.3347 3.41529C14.7487 2.82924 13.9538 2.5 13.125 2.5C12.2962 2.5 11.5013 2.82924 10.9153 3.41529C10.3292 4.00134 10 4.7962 10 5.625" stroke="#007DB6" stroke-linecap="round" stroke-linejoin="round"/>
    <path d="M6.875 6.5625V7.1875C6.875 7.76766 6.64453 8.32406 6.2343 8.7343C5.82406 9.14453 5.26766 9.375 4.6875 9.375" stroke="#007DB6" stroke-linecap="round" stroke-linejoin="round"/>
    <path d="M13.125 6.5625V7.1875C13.125 7.76766 13.3555 8.32406 13.7657 8.7343C14.1759 9.14453 14.7323 9.375 15.3125 9.375" stroke="#007DB6" stroke-linecap="round" stroke-linejoin="round"/>
</svg>
