<svg width="16" height="16" viewBox="0 0 16 16" xmlns="http://www.w3.org/2000/svg">
<path fill-rule="evenodd" clip-rule="evenodd" d="M2.64645 10.6464C2.84171 10.4512 3.15829 10.4512 3.35355 10.6464L5 12.2929L6.64645 10.6464C6.84171 10.4512 7.15829 10.4512 7.35355 10.6464C7.54882 10.8417 7.54882 11.1583 7.35355 11.3536L5.35355 13.3536C5.15829 13.5488 4.84171 13.5488 4.64645 13.3536L2.64645 11.3536C2.45118 11.1583 2.45118 10.8417 2.64645 10.6464Z" />
<path fill-rule="evenodd" clip-rule="evenodd" d="M5 2.5C5.27614 2.5 5.5 2.72386 5.5 3V13C5.5 13.2761 5.27614 13.5 5 13.5C4.72386 13.5 4.5 13.2761 4.5 13V3C4.5 2.72386 4.72386 2.5 5 2.5Z" />
<path fill-rule="evenodd" clip-rule="evenodd" d="M10.6464 2.64645C10.8417 2.45118 11.1583 2.45118 11.3536 2.64645L13.3536 4.64645C13.5488 4.84171 13.5488 5.15829 13.3536 5.35355C13.1583 5.54882 12.8417 5.54882 12.6464 5.35355L11 3.70711L9.35355 5.35355C9.15829 5.54882 8.84171 5.54882 8.64645 5.35355C8.45118 5.15829 8.45118 4.84171 8.64645 4.64645L10.6464 2.64645Z" />
<path fill-rule="evenodd" clip-rule="evenodd" d="M11 2.5C11.2761 2.5 11.5 2.72386 11.5 3V13C11.5 13.2761 11.2761 13.5 11 13.5C10.7239 13.5 10.5 13.2761 10.5 13V3C10.5 2.72386 10.7239 2.5 11 2.5Z" />
</svg>
