<svg width="16" height="16" viewBox="0 0 16 16"  xmlns="http://www.w3.org/2000/svg">
<path fill-rule="evenodd" clip-rule="evenodd" d="M1 14C1 13.7239 1.22386 13.5 1.5 13.5H14.5C14.7761 13.5 15 13.7239 15 14C15 14.2761 14.7761 14.5 14.5 14.5H1.5C1.22386 14.5 1 14.2761 1 14Z" />
<path fill-rule="evenodd" clip-rule="evenodd" d="M3.29289 1.79289C3.48043 1.60536 3.73478 1.5 4 1.5H12C12.2652 1.5 12.5196 1.60536 12.7071 1.79289C12.8946 1.98043 13 2.23478 13 2.5V14C13 14.2761 12.7761 14.5 12.5 14.5C12.2239 14.5 12 14.2761 12 14V2.5L4 2.5L4 14C4 14.2761 3.77614 14.5 3.5 14.5C3.22386 14.5 3 14.2761 3 14V2.5C3 2.23478 3.10536 1.98043 3.29289 1.79289Z" />
<path d="M9.75 8.75C10.1642 8.75 10.5 8.41421 10.5 8C10.5 7.58579 10.1642 7.25 9.75 7.25C9.33579 7.25 9 7.58579 9 8C9 8.41421 9.33579 8.75 9.75 8.75Z" />
</svg>
