<svg width="17" height="16" viewBox="0 0 17 16" xmlns="http://www.w3.org/2000/svg">
<path fill-rule="evenodd" clip-rule="evenodd" d="M8.48 1.5C8.75614 1.5 8.98 1.72386 8.98 2V11.5C8.98 11.7761 8.75614 12 8.48 12C8.20385 12 7.98 11.7761 7.98 11.5V2C7.98 1.72386 8.20385 1.5 8.48 1.5Z" />
<path fill-rule="evenodd" clip-rule="evenodd" d="M3.62644 6.64645C3.8217 6.45118 4.13829 6.45118 4.33355 6.64645L8.48 10.7929L12.6264 6.64645C12.8217 6.45118 13.1383 6.45118 13.3335 6.64645C13.5288 6.84171 13.5288 7.15829 13.3335 7.35355L8.83355 11.8536C8.63829 12.0488 8.3217 12.0488 8.12644 11.8536L3.62644 7.35355C3.43118 7.15829 3.43118 6.84171 3.62644 6.64645Z" />
<path fill-rule="evenodd" clip-rule="evenodd" d="M2.48 13.5C2.48 13.2239 2.70385 13 2.98 13H13.98C14.2561 13 14.48 13.2239 14.48 13.5C14.48 13.7761 14.2561 14 13.98 14H2.98C2.70385 14 2.48 13.7761 2.48 13.5Z"/>
</svg>
