<svg width="17" height="16" viewBox="0 0 17 16"  xmlns="http://www.w3.org/2000/svg">
<path fill-rule="evenodd" clip-rule="evenodd" d="M4.73 8.375C3.69446 8.375 2.855 9.21447 2.855 10.25C2.855 11.2855 3.69446 12.125 4.73 12.125C5.76553 12.125 6.605 11.2855 6.605 10.25C6.605 9.21447 5.76553 8.375 4.73 8.375ZM2.105 10.25C2.105 8.80025 3.28025 7.625 4.73 7.625C6.17974 7.625 7.355 8.80025 7.355 10.25C7.355 11.6997 6.17974 12.875 4.73 12.875C3.28025 12.875 2.105 11.6997 2.105 10.25Z" />
<path fill-rule="evenodd" clip-rule="evenodd" d="M12.23 8.375C11.1945 8.375 10.355 9.21447 10.355 10.25C10.355 11.2855 11.1945 12.125 12.23 12.125C13.2655 12.125 14.105 11.2855 14.105 10.25C14.105 9.21447 13.2655 8.375 12.23 8.375ZM9.605 10.25C9.605 8.80025 10.7802 7.625 12.23 7.625C13.6797 7.625 14.855 8.80025 14.855 10.25C14.855 11.6997 13.6797 12.875 12.23 12.875C10.7802 12.875 9.605 11.6997 9.605 10.25Z" />
<path fill-rule="evenodd" clip-rule="evenodd" d="M6.605 10C6.605 9.79289 6.77289 9.625 6.98 9.625H9.98C10.1871 9.625 10.355 9.79289 10.355 10C10.355 10.2071 10.1871 10.375 9.98 10.375H6.98C6.77289 10.375 6.605 10.2071 6.605 10Z" fill="#007DB6"/>
<path fill-rule="evenodd" clip-rule="evenodd" d="M13.4122 3.33425C13.2756 3.27801 13.1293 3.24938 12.9816 3.25C12.7745 3.25087 12.6059 3.08368 12.605 2.87657C12.6041 2.66947 12.7713 2.50087 12.9784 2.5C13.2251 2.49897 13.4696 2.5468 13.6978 2.64074C13.9259 2.73468 14.1332 2.87287 14.3077 3.04733C14.4821 3.22179 14.6203 3.42908 14.7143 3.65722C14.8081 3.8851 14.8559 4.12929 14.855 4.37573L14.855 4.37657L14.48 4.375H14.855V4.37573V10.125C14.855 10.3321 14.6871 10.5 14.48 10.5C14.2729 10.5 14.105 10.3321 14.105 10.125V4.37343C14.1056 4.22572 14.077 4.07936 14.0207 3.94278C13.9645 3.8062 13.8818 3.68211 13.7773 3.57766C13.6729 3.47322 13.5488 3.39049 13.4122 3.33425Z" />
<path fill-rule="evenodd" clip-rule="evenodd" d="M3.52275 3.33426C3.65933 3.27803 3.80569 3.24939 3.9534 3.25001C4.1605 3.25088 4.3291 3.08369 4.32997 2.87659C4.33084 2.66948 4.16365 2.50088 3.95654 2.50002C3.70982 2.49898 3.46533 2.54681 3.23719 2.64075C3.00905 2.73469 2.80176 2.87288 2.6273 3.04734C2.45284 3.22181 2.31465 3.42909 2.22071 3.65723C2.12688 3.88512 2.07905 4.12931 2.07997 4.37574L2.07997 4.37659L2.45497 4.37501H2.07997V4.37574V10.125C2.07997 10.3321 2.24786 10.5 2.45497 10.5C2.66208 10.5 2.82997 10.3321 2.82997 10.125V4.37344C2.82935 4.22574 2.85798 4.07937 2.91422 3.94279C2.97046 3.80621 3.05319 3.68212 3.15763 3.57767C3.26208 3.47323 3.38617 3.3905 3.52275 3.33426Z" />
</svg>
