<svg width="17" height="16" viewBox="0 0 17 16" xmlns="http://www.w3.org/2000/svg">
<path fill-rule="evenodd" clip-rule="evenodd" d="M2.75144 5.39645C3.94335 4.20453 5.81371 3 8.48 3C11.1463 3 13.0166 4.20453 14.2085 5.39645C14.8031 5.99096 15.2318 6.58461 15.5125 7.03047C15.6531 7.25379 15.7573 7.44117 15.8272 7.57464C15.8622 7.64141 15.8886 7.69479 15.9068 7.73255C15.9159 7.75144 15.9229 7.76643 15.9279 7.77725L15.9339 7.79032L15.9358 7.79445L15.9364 7.7959L15.9367 7.79646C15.9368 7.79671 15.9369 7.79693 15.48 8C15.9369 8.20307 15.9368 8.20329 15.9367 8.20354L15.9364 8.2041L15.9358 8.20555L15.9339 8.20968L15.9279 8.22275C15.9229 8.23357 15.9159 8.24856 15.9068 8.26745C15.8886 8.30521 15.8622 8.35859 15.8272 8.42536C15.7573 8.55883 15.6531 8.74621 15.5125 8.96953C15.2318 9.41539 14.8031 10.009 14.2085 10.6036C13.0166 11.7955 11.1463 13 8.48 13C5.81371 13 3.94335 11.7955 2.75144 10.6036C2.15693 10.009 1.72823 9.41539 1.4475 8.96953C1.3069 8.74621 1.20269 8.55883 1.13278 8.42536C1.09781 8.35859 1.07136 8.30521 1.05318 8.26745C1.04408 8.24856 1.03705 8.23357 1.03205 8.22275L1.02606 8.20968L1.0242 8.20555L1.02355 8.2041L1.0233 8.20354C1.02319 8.20329 1.02309 8.20307 1.48 8C1.02309 7.79693 1.02319 7.79671 1.0233 7.79646L1.02355 7.7959L1.0242 7.79445L1.02606 7.79032L1.03205 7.77725C1.03705 7.76643 1.04408 7.75144 1.05318 7.73255C1.07136 7.69479 1.09781 7.64141 1.13278 7.57464C1.20269 7.44117 1.3069 7.25379 1.4475 7.03047C1.72823 6.58461 2.15693 5.99096 2.75144 5.39645ZM1.48 8L1.02309 7.79693C0.965631 7.92621 0.965631 8.07379 1.02309 8.20307L1.48 8ZM2.03905 8C2.09787 8.11018 2.18235 8.25981 2.29374 8.43672C2.54426 8.83461 2.92806 9.36596 3.45855 9.89645C4.51664 10.9545 6.14629 12 8.48 12C10.8137 12 12.4434 10.9545 13.5014 9.89645C14.0319 9.36596 14.4157 8.83461 14.6663 8.43672C14.7776 8.25981 14.8621 8.11018 14.9209 8C14.8621 7.88982 14.7776 7.74019 14.6663 7.56328C14.4157 7.16539 14.0319 6.63404 13.5014 6.10355C12.4434 5.04547 10.8137 4 8.48 4C6.14629 4 4.51664 5.04547 3.45855 6.10355C2.92806 6.63404 2.54426 7.16539 2.29374 7.56328C2.18235 7.74019 2.09787 7.88982 2.03905 8ZM15.48 8L15.9369 8.20307C15.9944 8.07379 15.9944 7.92621 15.9369 7.79693L15.48 8Z" />
<path fill-rule="evenodd" clip-rule="evenodd" d="M8.48 6C7.37543 6 6.48 6.89543 6.48 8C6.48 9.10457 7.37543 10 8.48 10C9.58457 10 10.48 9.10457 10.48 8C10.48 6.89543 9.58457 6 8.48 6ZM5.48 8C5.48 6.34315 6.82314 5 8.48 5C10.1368 5 11.48 6.34315 11.48 8C11.48 9.65685 10.1368 11 8.48 11C6.82314 11 5.48 9.65685 5.48 8Z" />
</svg>
