<svg width="21" height="20" viewBox="0 0 21 20" fill="none" xmlns="http://www.w3.org/2000/svg">
<g id="phosphor/FadersHorizontal">
<path id="Vector (Stroke)" fill-rule="evenodd" clip-rule="evenodd" d="M3.48 13.4375C3.48 13.0923 3.75982 12.8125 4.105 12.8125H11.605C11.9502 12.8125 12.23 13.0923 12.23 13.4375C12.23 13.7827 11.9502 14.0625 11.605 14.0625H4.105C3.75982 14.0625 3.48 13.7827 3.48 13.4375Z" fill="#424242"/>
<path id="Vector (Stroke)_2" fill-rule="evenodd" clip-rule="evenodd" d="M13.48 13.4375C13.48 13.0923 13.7598 12.8125 14.105 12.8125H17.855C18.2002 12.8125 18.48 13.0923 18.48 13.4375C18.48 13.7827 18.2002 14.0625 17.855 14.0625H14.105C13.7598 14.0625 13.48 13.7827 13.48 13.4375Z" fill="#424242"/>
<path id="Vector (Stroke)_3" fill-rule="evenodd" clip-rule="evenodd" d="M3.48 6.5625C3.48 6.21732 3.75982 5.9375 4.105 5.9375H6.605C6.95017 5.9375 7.23 6.21732 7.23 6.5625C7.23 6.90768 6.95017 7.1875 6.605 7.1875H4.105C3.75982 7.1875 3.48 6.90768 3.48 6.5625Z" fill="#424242"/>
<path id="Vector (Stroke)_4" fill-rule="evenodd" clip-rule="evenodd" d="M8.48 6.5625C8.48 6.21732 8.75982 5.9375 9.105 5.9375H17.855C18.2002 5.9375 18.48 6.21732 18.48 6.5625C18.48 6.90768 18.2002 7.1875 17.855 7.1875H9.105C8.75982 7.1875 8.48 6.90768 8.48 6.5625Z" fill="#424242"/>
<path id="Vector (Stroke)_5" fill-rule="evenodd" clip-rule="evenodd" d="M9.105 4.0625C9.45017 4.0625 9.73 4.34232 9.73 4.6875V8.4375C9.73 8.78268 9.45017 9.0625 9.105 9.0625C8.75982 9.0625 8.48 8.78268 8.48 8.4375V4.6875C8.48 4.34232 8.75982 4.0625 9.105 4.0625Z" fill="#424242"/>
<path id="Vector (Stroke)_6" fill-rule="evenodd" clip-rule="evenodd" d="M14.105 10.9375C14.4502 10.9375 14.73 11.2173 14.73 11.5625V15.3125C14.73 15.6577 14.4502 15.9375 14.105 15.9375C13.7598 15.9375 13.48 15.6577 13.48 15.3125V11.5625C13.48 11.2173 13.7598 10.9375 14.105 10.9375Z" fill="#424242"/>
</g>
</svg>
