<svg width="16" height="16" viewBox="0 0 16 16" xmlns="http://www.w3.org/2000/svg">
<g id="phosphor/FileDotted">
<path id="Vector (Stroke)" fill-rule="evenodd" clip-rule="evenodd" d="M3 11C3.27614 11 3.5 11.2239 3.5 11.5V13.5H4.5C4.77614 13.5 5 13.7239 5 14C5 14.2761 4.77614 14.5 4.5 14.5H3.5C3.23478 14.5 2.98043 14.3946 2.79289 14.2071C2.60536 14.0196 2.5 13.7652 2.5 13.5V11.5C2.5 11.2239 2.72386 11 3 11Z" />
<path id="Vector (Stroke)_2" fill-rule="evenodd" clip-rule="evenodd" d="M7 2C7 1.72386 7.22386 1.5 7.5 1.5H9.5C9.63261 1.5 9.75979 1.55268 9.85355 1.64645L13.3536 5.14645C13.4473 5.24021 13.5 5.36739 13.5 5.5V8.5C13.5 8.77614 13.2761 9 13 9C12.7239 9 12.5 8.77614 12.5 8.5V5.70711L9.29289 2.5H7.5C7.22386 2.5 7 2.27614 7 2Z" />
<path id="Vector (Stroke)_3" fill-rule="evenodd" clip-rule="evenodd" d="M2.79289 1.79289C2.98043 1.60536 3.23478 1.5 3.5 1.5H5C5.27614 1.5 5.5 1.72386 5.5 2C5.5 2.27614 5.27614 2.5 5 2.5L3.5 2.5L3.5 4C3.5 4.27614 3.27614 4.5 3 4.5C2.72386 4.5 2.5 4.27614 2.5 4V2.5C2.5 2.23478 2.60536 1.98043 2.79289 1.79289Z" />
<path id="Vector (Stroke)_4" fill-rule="evenodd" clip-rule="evenodd" d="M9.5 1.5C9.77614 1.5 10 1.72386 10 2V5H13C13.2761 5 13.5 5.22386 13.5 5.5C13.5 5.77614 13.2761 6 13 6H9.5C9.22386 6 9 5.77614 9 5.5V2C9 1.72386 9.22386 1.5 9.5 1.5Z" />
<path id="Vector (Stroke)_5" fill-rule="evenodd" clip-rule="evenodd" d="M13 10.5C13.2761 10.5 13.5 10.7239 13.5 11V13.5C13.5 13.7652 13.3946 14.0196 13.2071 14.2071C13.0196 14.3946 12.7652 14.5 12.5 14.5H12C11.7239 14.5 11.5 14.2761 11.5 14C11.5 13.7239 11.7239 13.5 12 13.5H12.5V11C12.5 10.7239 12.7239 10.5 13 10.5Z" />
<path id="Vector (Stroke)_6" fill-rule="evenodd" clip-rule="evenodd" d="M3 6C3.27614 6 3.5 6.22386 3.5 6.5V9C3.5 9.27614 3.27614 9.5 3 9.5C2.72386 9.5 2.5 9.27614 2.5 9V6.5C2.5 6.22386 2.72386 6 3 6Z" />
<path id="Vector (Stroke)_7" fill-rule="evenodd" clip-rule="evenodd" d="M6.5 14C6.5 13.7239 6.72386 13.5 7 13.5H9.5C9.77614 13.5 10 13.7239 10 14C10 14.2761 9.77614 14.5 9.5 14.5H7C6.72386 14.5 6.5 14.2761 6.5 14Z" />
</g>
</svg>
