<svg width="16" height="16" viewBox="0 0 16 16" xmlns="http://www.w3.org/2000/svg">
<g id="phosphor/GearSix">
<path id="Vector (Stroke)" fill-rule="evenodd" clip-rule="evenodd" d="M8 5.5C6.61929 5.5 5.5 6.61929 5.5 8C5.5 9.38071 6.61929 10.5 8 10.5C9.38071 10.5 10.5 9.38071 10.5 8C10.5 6.61929 9.38071 5.5 8 5.5ZM4.5 8C4.5 6.067 6.067 4.5 8 4.5C9.933 4.5 11.5 6.067 11.5 8C11.5 9.933 9.933 11.5 8 11.5C6.067 11.5 4.5 9.933 4.5 8Z"/>
<path id="Vector (Stroke)_2" fill-rule="evenodd" clip-rule="evenodd" d="M5.85892 1.33043C5.99624 1.2861 6.14603 1.30326 6.26977 1.3775L7.73132 2.25444C7.91047 2.24643 8.08989 2.24643 8.26904 2.25445L9.72452 1.38345C9.84724 1.31002 9.99553 1.29264 10.1319 1.33573C11.087 1.63749 11.9652 2.14323 12.7056 2.81794C12.8117 2.91466 12.8711 3.05234 12.8687 3.19592L12.8401 4.89481C12.9388 5.04637 13.0294 5.20308 13.1114 5.36427L14.593 6.188C14.7177 6.25736 14.8069 6.37674 14.838 6.51605C15.056 7.49235 15.0583 8.50445 14.8447 9.48173C14.814 9.62224 14.7243 9.74272 14.5985 9.8124L13.1112 10.6361C13.0292 10.7972 12.9387 10.9538 12.8401 11.1052L12.8687 12.8041C12.8711 12.9477 12.8117 13.0854 12.7055 13.1821C11.9667 13.8553 11.0923 14.3625 10.1411 14.6696C10.0038 14.7139 9.85401 14.6967 9.73027 14.6225L8.26872 13.7456C8.08957 13.7536 7.91015 13.7536 7.731 13.7455L6.27552 14.6165C6.1528 14.69 6.00451 14.7074 5.86814 14.6643C4.91299 14.3625 4.03484 13.8568 3.29448 13.1821C3.18834 13.0853 3.12891 12.9476 3.13134 12.8041L3.15997 11.109C3.06186 10.9559 2.97139 10.798 2.8889 10.6359L1.40705 9.812C1.2823 9.74264 1.19314 9.62326 1.16203 9.48395C0.944054 8.50765 0.941754 7.49555 1.15529 6.51827C1.18599 6.37776 1.27571 6.25728 1.40152 6.1876L2.88884 5.36386C2.97083 5.20282 3.06133 5.04625 3.15994 4.89481L3.13134 3.19592C3.12892 3.05234 3.18835 2.91465 3.29449 2.81793C4.0333 2.14469 4.90771 1.63748 5.85892 1.33043ZM4.13509 3.41042L4.16245 5.03533C4.16422 5.1406 4.13272 5.24375 4.07243 5.33006C3.93832 5.52207 3.8209 5.72521 3.72148 5.93726C3.67678 6.03259 3.60312 6.11138 3.51102 6.16239L2.08886 6.95005C1.96446 7.64456 1.96619 8.35583 2.09396 9.04974L3.51173 9.838C3.60314 9.88882 3.67631 9.96703 3.72095 10.0616C3.82256 10.2769 3.94107 10.4839 4.07537 10.6805C4.13377 10.7659 4.1642 10.8674 4.16245 10.9709L4.13511 12.5895C4.67554 13.0461 5.29356 13.4019 5.95972 13.6401L7.34952 12.8085C7.43754 12.7558 7.53963 12.7315 7.64194 12.7388C7.88035 12.7558 8.11968 12.7558 8.35809 12.7388C8.46061 12.7314 8.56289 12.7559 8.65102 12.8088L10.0453 13.6453C10.7093 13.4033 11.3253 13.0459 11.8649 12.5896L11.8376 10.9647C11.8358 10.8594 11.8673 10.7563 11.9276 10.6699C12.0617 10.4779 12.1791 10.2748 12.2786 10.0627C12.3233 9.9674 12.3969 9.88862 12.489 9.8376L13.9112 9.04994C14.0356 8.35544 14.0339 7.64416 13.9061 6.95026L12.4883 6.162C12.3965 6.11097 12.3231 6.03234 12.2786 5.93726C12.1791 5.72521 12.0617 5.52207 11.9276 5.33006C11.8673 5.24375 11.8358 5.1406 11.8376 5.03533L11.8649 3.41048C11.3245 2.95394 10.7065 2.59807 10.0403 2.35985L8.65052 3.19154C8.5625 3.24422 8.46041 3.26854 8.35809 3.26122C8.11968 3.24417 7.88035 3.24417 7.64194 3.26122C7.53943 3.26856 7.43715 3.24412 7.34902 3.19125L5.95474 2.35468C5.29076 2.59667 4.67473 2.95409 4.13509 3.41042Z" />
</g>
</svg>
