<svg width="32" height="32" viewBox="0 0 32 32" xmlns="http://www.w3.org/2000/svg">
<path fill-rule="evenodd" clip-rule="evenodd" d="M3 7C3 5.89543 3.89543 5 5 5H27C28.1046 5 29 5.89543 29 7V22C29 23.1046 28.1046 24 27 24H5C3.89543 24 3 23.1046 3 22V7ZM27 7H5V22H27V7Z" />
<path fill-rule="evenodd" clip-rule="evenodd" d="M19.3753 22.2192C19.8066 21.8742 20.4359 21.9441 20.7809 22.3753L24.7809 27.3753C25.1259 27.8066 25.056 28.4359 24.6247 28.7809C24.1935 29.1259 23.5642 29.056 23.2192 28.6247L19.2192 23.6247C18.8742 23.1935 18.9441 22.5642 19.3753 22.2192Z" />
<path fill-rule="evenodd" clip-rule="evenodd" d="M12.6247 22.2192C13.056 22.5642 13.1259 23.1935 12.7809 23.6247L8.78091 28.6247C8.4359 29.056 7.8066 29.1259 7.37534 28.7809C6.94408 28.4359 6.87416 27.8066 7.21917 27.3753L11.2192 22.3753C11.5642 21.9441 12.1935 21.8742 12.6247 22.2192Z" />
<path fill-rule="evenodd" clip-rule="evenodd" d="M16 2C16.5523 2 17 2.44772 17 3V6C17 6.55228 16.5523 7 16 7C15.4477 7 15 6.55228 15 6V3C15 2.44772 15.4477 2 16 2Z" />
</svg>
