<svg width="16" height="16" viewBox="0 0 16 16" xmlns="http://www.w3.org/2000/svg">
<path fill-rule="evenodd" clip-rule="evenodd" d="M8 2.5C4.96243 2.5 2.5 4.96243 2.5 8C2.5 11.0376 4.96243 13.5 8 13.5C11.0376 13.5 13.5 11.0376 13.5 8C13.5 4.96243 11.0376 2.5 8 2.5ZM1.5 8C1.5 4.41015 4.41015 1.5 8 1.5C11.5899 1.5 14.5 4.41015 14.5 8C14.5 11.5899 11.5899 14.5 8 14.5C4.41015 14.5 1.5 11.5899 1.5 8Z" />
<path fill-rule="evenodd" clip-rule="evenodd" d="M8 5.5C6.89543 5.5 6 6.39543 6 7.5C6 8.60457 6.89543 9.5 8 9.5C9.10457 9.5 10 8.60457 10 7.5C10 6.39543 9.10457 5.5 8 5.5ZM5 7.5C5 5.84315 6.34315 4.5 8 4.5C9.65685 4.5 11 5.84315 11 7.5C11 9.15685 9.65685 10.5 8 10.5C6.34315 10.5 5 9.15685 5 7.5Z" />
<path fill-rule="evenodd" clip-rule="evenodd" d="M7.99997 10.4995C7.26129 10.4995 6.53704 10.7041 5.9075 11.0905C5.27795 11.4769 4.7677 12.0301 4.43331 12.6887C4.3083 12.935 4.00735 13.0332 3.76113 12.9082C3.5149 12.7832 3.41663 12.4823 3.54164 12.236C3.95963 11.4127 4.59744 10.7212 5.38438 10.2382C6.17131 9.75519 7.07662 9.49951 7.99997 9.49951C8.92332 9.49951 9.82864 9.75519 10.6156 10.2382C11.4025 10.7212 12.0403 11.4127 12.4583 12.236C12.5833 12.4823 12.485 12.7832 12.2388 12.9082C11.9926 13.0332 11.6916 12.935 11.5666 12.6887C11.2322 12.0301 10.722 11.4769 10.0925 11.0905C9.4629 10.7041 8.73865 10.4995 7.99997 10.4995Z" />
</svg>
