<svg width="32" height="32" viewBox="0 0 32 32" fill="none" xmlns="http://www.w3.org/2000/svg">
<path fill-rule="evenodd" clip-rule="evenodd" d="M16 5C9.92487 5 5 9.92487 5 16C5 22.0751 9.92487 27 16 27C22.0751 27 27 22.0751 27 16C27 9.92487 22.0751 5 16 5ZM3 16C3 8.8203 8.8203 3 16 3C23.1797 3 29 8.8203 29 16C29 23.1797 23.1797 29 16 29C8.8203 29 3 23.1797 3 16Z" fill="#C2C2C2"/>
<path d="M13.2375 11.8302C13.5071 11.1935 13.9884 10.6695 14.5998 10.3468C15.2113 10.0241 15.9155 9.92252 16.5933 10.0592C17.271 10.196 17.8807 10.5626 18.3193 11.0971C18.7578 11.6317 18.9983 12.3013 19 12.9927C19.0027 13.59 18.824 14.1741 18.4875 14.6677V14.6677L13 21.9927H19" stroke="#C2C2C2" stroke-width="2" stroke-linecap="round" stroke-linejoin="round"/>
</svg>
