<svg width="32" height="32" viewBox="0 0 32 32" fill="none" xmlns="http://www.w3.org/2000/svg">
<path fill-rule="evenodd" clip-rule="evenodd" d="M16 5C9.92487 5 5 9.92487 5 16C5 22.0751 9.92487 27 16 27C22.0751 27 27 22.0751 27 16C27 9.92487 22.0751 5 16 5ZM3 16C3 8.8203 8.8203 3 16 3C23.1797 3 29 8.8203 29 16C29 23.1797 23.1797 29 16 29C8.8203 29 3 23.1797 3 16Z" fill="#C2C2C2"/>
<path fill-rule="evenodd" clip-rule="evenodd" d="M16.1858 11.0051C15.7862 10.9651 15.3851 11.0648 15.0507 11.2872C14.7163 11.5096 14.4693 11.841 14.3516 12.225C14.234 12.609 14.253 13.0219 14.4054 13.3934C14.5578 13.765 14.8343 14.0723 15.1877 14.263C15.5411 14.4537 15.9497 14.5162 16.344 14.4396C16.7382 14.3631 17.0938 14.1524 17.3502 13.8432C17.6058 13.5351 17.7471 13.1481 17.7503 12.7479C17.7486 12.2826 17.5655 11.8363 17.24 11.5038C16.9566 11.2211 16.5842 11.0449 16.1858 11.0051ZM13.9431 9.62191C14.6624 9.14349 15.5253 8.92904 16.3849 9.01503C17.2445 9.10101 18.0478 9.48213 18.6581 10.0935L18.6634 10.0988L18.6633 10.0989C19.3585 10.8057 19.7487 11.757 19.7503 12.7484L19.7504 12.7559L19.7503 12.7559C19.7453 13.6198 19.4411 14.4552 18.8896 15.1201C18.338 15.785 17.5732 16.2384 16.7251 16.403C15.877 16.5676 14.9981 16.4334 14.2379 16.0231C13.4776 15.6128 12.883 14.9518 12.5551 14.1526C12.2272 13.3533 12.1863 12.4651 12.4393 11.6392C12.6924 10.8132 13.2238 10.1003 13.9431 9.62191Z" fill="#C2C2C2"/>
<path fill-rule="evenodd" clip-rule="evenodd" d="M16.2315 16.5142C15.7166 16.4637 15.2002 16.5931 14.77 16.8805C14.3398 17.1678 14.0225 17.5954 13.8721 18.0903C13.7217 18.5853 13.7474 19.1171 13.9449 19.5952C14.1423 20.0734 14.4994 20.4683 14.9553 20.7128C15.4112 20.9573 15.9377 21.0363 16.4453 20.9364C16.9528 20.8364 17.4101 20.5637 17.7392 20.1645C18.0683 19.7654 18.2489 19.2646 18.2504 18.7472C18.2512 18.4521 18.1936 18.1597 18.0809 17.8869C17.9682 17.614 17.8027 17.3662 17.5938 17.1577C17.2277 16.7922 16.7463 16.5648 16.2315 16.5142ZM13.6591 15.2174C14.4737 14.6732 15.4518 14.4281 16.4268 14.5238C17.4019 14.6195 18.3136 15.0501 19.0069 15.7424C19.4025 16.1373 19.716 16.6067 19.9294 17.1233C20.1429 17.64 20.2519 18.1938 20.2504 18.7528C20.2477 19.7325 19.9055 20.681 19.2823 21.4369C18.659 22.1928 17.793 22.7094 16.8318 22.8987C15.8705 23.088 14.8733 22.9384 14.01 22.4753C13.1466 22.0122 12.4704 21.2643 12.0963 20.3588C11.7223 19.4532 11.6736 18.4461 11.9585 17.5087C12.2435 16.5713 12.8444 15.7616 13.6591 15.2174Z" fill="#C2C2C2"/>
</svg>
